<svg width="45" height="44" viewBox="0 0 45 44" fill="none" xmlns="http://www.w3.org/2000/svg">
<path d="M22.6447 4.125C13.8566 4.125 6.63217 10.8405 5.92776 19.4028H4.16679C3.60967 19.4028 3.10761 19.739 2.89542 20.2541C2.68324 20.7692 2.80286 21.3615 3.19834 21.7539L6.278 24.8094C6.81408 25.3413 7.67881 25.3413 8.21489 24.8094L11.2945 21.7539C11.69 21.3615 11.8097 20.7692 11.5975 20.2541C11.3853 19.739 10.8832 19.4028 10.3261 19.4028H8.68922C9.38536 12.3781 15.3589 6.875 22.6447 6.875C27.7222 6.875 32.1667 9.54882 34.6287 13.5534C35.0264 14.2004 35.8732 14.4024 36.5201 14.0047C37.167 13.607 37.3691 12.7601 36.9714 12.1132C34.0264 7.32283 28.7102 4.125 22.6447 4.125Z" fill="#F28F2E"/>
<path d="M38.7089 19.1887C38.1732 18.6593 37.3113 18.6593 36.7757 19.1887L33.6843 22.2443C33.2877 22.6363 33.1671 23.2289 33.379 23.7447C33.5909 24.2605 34.0932 24.5972 34.6508 24.5972H36.2992C35.6003 31.618 29.6059 37.125 22.2851 37.125C17.1839 37.125 12.7208 34.4489 10.2497 30.4446C9.85086 29.7983 9.00368 29.5977 8.35744 29.9965C7.7112 30.3954 7.51062 31.2425 7.90943 31.8888C10.8659 36.6795 16.2009 39.875 22.2851 39.875C31.0996 39.875 38.3538 33.1636 39.0608 24.5972H40.8337C41.3913 24.5972 41.8937 24.2605 42.1056 23.7447C42.3174 23.2289 42.1969 22.6363 41.8003 22.2443L38.7089 19.1887Z" fill="#F28F2E"/>
</svg>
