<svg width="180" height="48" viewBox="0 0 180 48" fill="none" xmlns="http://www.w3.org/2000/svg">
<path d="M172.789 36.7519C170.469 36.7519 168.689 36.1951 167.452 35.0815C166.214 33.9679 165.595 32.4223 165.595 30.4447V27.2191C165.595 25.2415 166.214 23.6959 167.452 22.5823C168.689 21.4687 170.469 20.9119 172.789 20.9119C175.129 20.9119 176.908 21.4687 178.126 22.5823C179.364 23.6767 179.983 25.2223 179.983 27.2191V30.4447C179.983 32.4415 179.364 33.9967 178.126 35.1103C176.908 36.2047 175.129 36.7519 172.789 36.7519ZM170.962 30.5887C170.962 31.6063 171.571 32.1151 172.789 32.1151C174.007 32.1151 174.616 31.6063 174.616 30.5887V27.0751C174.616 26.0383 174.007 25.5199 172.789 25.5199C171.571 25.5199 170.962 26.0383 170.962 27.0751V30.5887Z" fill="white"/>
<path d="M159.173 36.3198C158.747 36.3198 158.457 36.243 158.303 36.0894C158.148 35.9166 158.071 35.6286 158.071 35.2254V22.4382C158.071 22.035 158.148 21.7566 158.303 21.603C158.457 21.4302 158.747 21.3438 159.173 21.3438H162.334C162.76 21.3438 163.05 21.4302 163.205 21.603C163.379 21.7566 163.466 22.035 163.466 22.4382V35.2254C163.466 35.6286 163.379 35.9166 163.205 36.0894C163.05 36.243 162.76 36.3198 162.334 36.3198H159.173ZM157.896 17.1102C157.896 16.3038 158.042 15.7566 158.332 15.4686C158.641 15.1614 159.211 15.0078 160.043 15.0078H161.464C162.296 15.0078 162.857 15.1614 163.147 15.4686C163.456 15.7566 163.611 16.3038 163.611 17.1102V17.427C163.611 18.2334 163.456 18.7806 163.147 19.0686C162.857 19.3566 162.296 19.5006 161.464 19.5006H160.043C159.211 19.5006 158.641 19.3566 158.332 19.0686C158.042 18.7806 157.896 18.2334 157.896 17.427V17.1102Z" fill="white"/>
<path d="M152.397 36.5503C151.527 36.5503 150.927 36.3871 150.599 36.0607C150.27 35.7343 150.105 35.1487 150.105 34.3039V33.1231C150.105 32.2783 150.27 31.6927 150.599 31.3663C150.927 31.0399 151.527 30.8767 152.397 30.8767H153.47C154.34 30.8767 154.94 31.0399 155.269 31.3663C155.597 31.6927 155.762 32.2783 155.762 33.1231V34.3039C155.762 35.1487 155.597 35.7343 155.269 36.0607C154.94 36.3871 154.34 36.5503 153.47 36.5503H152.397Z" fill="white"/>
<path d="M146.927 30.5185H138.083V30.6659C138.083 31.8641 138.469 32.4633 139.24 32.4633C139.458 32.4633 139.725 32.3062 140.042 31.9918C140.358 31.6776 140.704 31.5205 141.08 31.5205H146.69C147.125 31.5205 147.342 31.7365 147.342 32.1686C147.342 33.1312 146.61 34.1331 145.146 35.1742C143.702 36.2153 141.733 36.736 139.24 36.736C136.767 36.736 134.739 36.0976 133.157 34.8206C131.594 33.5241 130.812 31.7464 130.812 29.4872V28.0728C130.812 25.9317 131.613 24.1931 133.216 22.8573C134.818 21.5017 136.916 20.824 139.507 20.824C142.119 20.824 144.137 21.5803 145.562 23.0929C147.006 24.6056 147.728 26.5209 147.728 28.839V29.723C147.728 29.939 147.649 30.1256 147.491 30.2829C147.333 30.44 147.144 30.5185 146.927 30.5185ZM140.457 26.7174C140.457 25.5387 140.061 24.9494 139.27 24.9494C138.479 24.9494 138.083 25.5387 138.083 26.7174V26.8352H140.457V26.7174Z" fill="white"/>
<path d="M127.488 36.4415H122.175C121.958 36.4415 121.77 36.363 121.611 36.2057C121.453 36.0486 121.374 35.862 121.374 35.6459V16.3158C121.374 16.0998 121.453 15.9132 121.611 15.756C121.77 15.5988 121.958 15.5203 122.175 15.5203H127.488C127.705 15.5203 127.893 15.5988 128.051 15.756C128.21 15.9132 128.289 16.0998 128.289 16.3158V35.6459C128.289 35.862 128.21 36.0486 128.051 36.2057C127.893 36.363 127.705 36.4415 127.488 36.4415Z" fill="white"/>
<path d="M101.802 32.0509C101.802 29.3989 103.969 27.6995 108.302 26.9531L111.447 26.4521C111.447 25.8629 111.398 25.4699 111.299 25.2734C111.2 25.0574 110.963 24.9494 110.587 24.9494C110.231 24.9494 109.875 25.1065 109.518 25.4208C109.162 25.7352 108.826 25.8923 108.509 25.8923H103.464C103.029 25.8923 102.811 25.6861 102.811 25.2734C102.811 24.8413 102.96 24.3894 103.256 23.9181C103.573 23.4269 104.018 22.9456 104.592 22.4742C105.185 22.0027 106.007 21.6097 107.055 21.2955C108.124 20.9813 109.311 20.824 110.616 20.824C113.268 20.824 115.256 21.3741 116.582 22.4742C117.907 23.5742 118.57 25.1457 118.57 27.1888V35.6457C118.57 35.8617 118.491 36.0485 118.333 36.2056C118.174 36.3627 117.986 36.4413 117.769 36.4413H112.575C112.357 36.4413 112.17 36.3627 112.011 36.2056C111.853 36.0485 111.774 35.8617 111.774 35.6457V34.8206C110.844 36.0976 109.489 36.736 107.708 36.736C105.927 36.736 104.493 36.2941 103.405 35.4101C102.336 34.5064 101.802 33.3865 101.802 32.0509ZM109.607 32.3749C110.893 32.3749 111.536 31.6088 111.536 30.0766L109.785 30.4597C108.915 30.656 108.48 31.0195 108.48 31.5499C108.48 31.7856 108.579 31.9821 108.776 32.1392C108.974 32.2963 109.251 32.3749 109.607 32.3749Z" fill="white"/>
<path d="M89.0019 27.7195V35.6459C89.0019 35.862 88.9226 36.0486 88.7644 36.2057C88.6061 36.363 88.4182 36.4415 88.2005 36.4415H82.4134C82.1957 36.4415 82.0078 36.363 81.8496 36.2057C81.6912 36.0486 81.6121 35.862 81.6121 35.6459V16.3158C81.6121 16.0998 81.6912 15.9132 81.8496 15.756C82.0078 15.5988 82.1957 15.5203 82.4134 15.5203H88.2005C88.4182 15.5203 88.6061 15.5988 88.7644 15.756C88.9226 15.9132 89.0019 16.0998 89.0019 16.3158V22.6511C90.1296 21.4332 91.5739 20.8243 93.3348 20.8243C95.0956 20.8243 96.5498 21.3939 97.6973 22.5332C98.8448 23.6727 99.4187 25.3326 99.4187 27.5132V35.6164C99.4187 35.8326 99.3396 36.0191 99.1812 36.1763C99.0229 36.3335 98.835 36.4121 98.6173 36.4121H92.8006C92.5829 36.4121 92.395 36.3335 92.2367 36.1763C92.0783 36.0191 91.9992 35.8326 91.9992 35.6164V27.7195C91.9992 26.639 91.4947 26.0988 90.4857 26.0988C89.4964 26.0988 89.0019 26.639 89.0019 27.7195Z" fill="white"/>
<path d="M63.4523 36.4413H59.2083C58.8324 36.4413 58.5159 36.3333 58.2587 36.1171C58.0212 35.8814 57.8827 35.6163 57.8431 35.3216L55.1128 16.5513V16.463C55.1128 16.2862 55.1721 16.1389 55.2909 16.0209C55.4293 15.8835 55.5877 15.8147 55.7658 15.8147H61.2858C61.9386 15.8147 62.2947 16.08 62.354 16.6104L63.3631 24.9198L64.58 21.2366C64.7778 20.6669 65.1142 20.3821 65.589 20.3821H68.616C69.0909 20.3821 69.4272 20.6669 69.6251 21.2366L70.8419 24.8904L71.851 16.6104C71.9103 16.08 72.2665 15.8147 72.9194 15.8147H78.4393C78.6174 15.8147 78.7658 15.8835 78.8846 16.0209C79.023 16.1389 79.0923 16.2862 79.0923 16.463V16.5513L76.362 35.3216C76.3223 35.6163 76.1739 35.8814 75.9167 36.1171C75.6794 36.3333 75.3727 36.4413 74.9967 36.4413H70.7528C70.1395 36.4413 69.7339 36.1761 69.5362 35.6457L67.1025 29.6051L64.6689 35.6457C64.4712 36.1761 64.0656 36.4413 63.4523 36.4413Z" fill="white"/>
<mask id="mask0_20727_1353" style="mask-type:luminance" maskUnits="userSpaceOnUse" x="1" y="0" width="45" height="48">
<path d="M45.1669 0.157719L1.16992 0.157715L1.16992 47.4362L45.1669 47.4362L45.1669 0.157719Z" fill="white"/>
</mask>
<g mask="url(#mask0_20727_1353)">
<path fill-rule="evenodd" clip-rule="evenodd" d="M23.1741 19.1043C22.8045 17.7407 23.2282 17.4922 20.2431 14.6217C19.7015 14.1024 17.9843 13.0511 17.0636 12.3948C16.4328 11.9488 17.7007 11.9233 18.6374 11.1332C20.3259 9.70911 22.0622 6.13774 20.9153 3.56992C19.8799 1.2506 19.0038 -0.272249 21.3422 1.35255C24.3656 3.45523 24.8148 6.69527 25.1238 9.17707C25.6909 13.7233 24.2605 17.626 24.0789 18.757C23.8909 19.9358 23.9355 21.9078 23.1741 19.1043Z" fill="#FF6659"/>
</g>
<mask id="mask1_20727_1353" style="mask-type:luminance" maskUnits="userSpaceOnUse" x="1" y="0" width="45" height="48">
<path d="M45.1669 0.157719L1.16992 0.157715L1.16992 47.4362L45.1669 47.4362L45.1669 0.157719Z" fill="white"/>
</mask>
<g mask="url(#mask1_20727_1353)">
<path d="M23.1741 19.1043C22.8045 17.7407 23.2282 17.4922 20.2431 14.6217C19.7015 14.1024 17.9843 13.0511 17.0636 12.3948C16.4328 11.9488 17.7007 11.9233 18.6374 11.1332C20.3259 9.70911 22.0622 6.13774 20.9153 3.56992C19.8799 1.2506 19.0038 -0.272249 21.3422 1.35255C24.3656 3.45523 24.8148 6.69527 25.1238 9.17707C25.6909 13.7233 24.2605 17.626 24.0789 18.757C23.8909 19.9358 23.9355 21.9078 23.1741 19.1043Z" stroke="#13161E" stroke-width="0.382306" stroke-miterlimit="1.5" stroke-linecap="round" stroke-linejoin="round"/>
</g>
<mask id="mask2_20727_1353" style="mask-type:luminance" maskUnits="userSpaceOnUse" x="1" y="0" width="45" height="48">
<path d="M45.1669 0.157719L1.16992 0.157715L1.16992 47.4362L45.1669 47.4362L45.1669 0.157719Z" fill="white"/>
</mask>
<g mask="url(#mask2_20727_1353)">
<path fill-rule="evenodd" clip-rule="evenodd" d="M21.3775 7.74597C21.2023 7.54844 21.2596 8.06774 20.4982 9.46953C19.6093 11.1071 17.9463 11.6423 18.7364 11.929C18.9307 11.9991 18.9594 12.0342 19.1378 12.0947C20.4153 12.5407 21.1831 13.557 21.7502 14.9046C22.3173 16.2523 23.101 18.9539 23.101 18.9539C23.101 18.9539 24.2766 18.7659 24.181 17.361C24.0855 15.956 24.0154 10.7248 21.3775 7.74597Z" fill="#E64F42"/>
</g>
<mask id="mask3_20727_1353" style="mask-type:luminance" maskUnits="userSpaceOnUse" x="1" y="0" width="45" height="48">
<path d="M45.1669 0.157719L1.16992 0.157715L1.16992 47.4362L45.1669 47.4362L45.1669 0.157719Z" fill="white"/>
</mask>
<g mask="url(#mask3_20727_1353)">
<path fill-rule="evenodd" clip-rule="evenodd" d="M23.1845 18.263C22.9965 17.2148 22.8722 14.4527 21.8974 13.481C21.1551 12.7419 20.5115 11.4866 19.5526 10.8303C19.3964 10.722 18.8676 11.3751 18.2941 11.7319C17.7621 12.0601 17.109 12.1684 17.3129 12.2321C18.7752 12.7068 20.7759 14.2392 21.7572 15.4276C22.5473 16.3801 22.799 17.4506 23.0921 18.8364C23.3884 20.2255 23.3692 19.3143 23.1845 18.263Z" fill="#B84940"/>
</g>
<mask id="mask4_20727_1353" style="mask-type:luminance" maskUnits="userSpaceOnUse" x="1" y="0" width="45" height="48">
<path d="M45.1669 0.157719L1.16992 0.157715L1.16992 47.4362L45.1669 47.4362L45.1669 0.157719Z" fill="white"/>
</mask>
<g mask="url(#mask4_20727_1353)">
<path d="M19.2688 10.6609C19.2688 10.6609 20.4476 11.4828 21.5754 12.9961C22.8688 14.7324 23.0313 16.5484 23.2448 18.2465" stroke="#13161E" stroke-width="0.382306" stroke-miterlimit="1.5" stroke-linecap="round" stroke-linejoin="round"/>
</g>
<mask id="mask5_20727_1353" style="mask-type:luminance" maskUnits="userSpaceOnUse" x="1" y="0" width="45" height="48">
<path d="M45.1669 0.157719L1.16992 0.157715L1.16992 47.4362L45.1669 47.4362L45.1669 0.157719Z" fill="white"/>
</mask>
<g mask="url(#mask5_20727_1353)">
<path d="M12.1222 22.8156C13.1226 23.2712 14.2153 23.0195 14.569 22.2517C14.9194 21.4839 14.3937 20.4899 13.3966 20.0311C12.3962 19.5756 11.3034 19.8272 10.9498 20.595C10.5962 21.3628 11.1218 22.3568 12.1222 22.8156Z" fill="#D9FFFD"/>
</g>
<mask id="mask6_20727_1353" style="mask-type:luminance" maskUnits="userSpaceOnUse" x="1" y="0" width="45" height="48">
<path d="M45.1669 0.157719L1.16992 0.157715L1.16992 47.4362L45.1669 47.4362L45.1669 0.157719Z" fill="white"/>
</mask>
<g mask="url(#mask6_20727_1353)">
<path d="M12.1222 22.8156C13.1226 23.2712 14.2153 23.0195 14.569 22.2517C14.9194 21.4839 14.3937 20.4899 13.3966 20.0311C12.3962 19.5756 11.3034 19.8272 10.9498 20.595C10.5962 21.3628 11.1218 22.3568 12.1222 22.8156Z" stroke="#13161E" stroke-width="0.379534" stroke-miterlimit="1.5" stroke-linecap="round" stroke-linejoin="round"/>
</g>
<mask id="mask7_20727_1353" style="mask-type:luminance" maskUnits="userSpaceOnUse" x="1" y="0" width="45" height="48">
<path d="M45.1669 0.157719L1.16992 0.157715L1.16992 47.4362L45.1669 47.4362L45.1669 0.157719Z" fill="white"/>
</mask>
<g mask="url(#mask7_20727_1353)">
<path d="M14.5442 22.4969C14.8564 21.9457 14.5602 21.1875 13.8848 20.8084C13.2093 20.4261 12.4097 20.5663 12.0975 21.1174C11.7853 21.6686 12.0815 22.4268 12.757 22.8059C13.4324 23.1882 14.232 23.0481 14.5442 22.4969Z" fill="#ACC0BF"/>
</g>
<mask id="mask8_20727_1353" style="mask-type:luminance" maskUnits="userSpaceOnUse" x="1" y="0" width="45" height="48">
<path d="M45.1669 0.157719L1.16992 0.157715L1.16992 47.4362L45.1669 47.4362L45.1669 0.157719Z" fill="white"/>
</mask>
<g mask="url(#mask8_20727_1353)">
<path d="M16.1627 20.8753C16.7521 20.4038 16.7585 19.4321 16.1755 18.6994C15.5925 17.9698 14.6431 17.7563 14.0505 18.2278C13.4579 18.6994 13.4547 19.671 14.0378 20.4038C14.6208 21.1334 15.5702 21.3468 16.1627 20.8753Z" fill="#D9FFFD"/>
</g>
<mask id="mask9_20727_1353" style="mask-type:luminance" maskUnits="userSpaceOnUse" x="1" y="0" width="45" height="48">
<path d="M45.1669 0.157719L1.16992 0.157715L1.16992 47.4362L45.1669 47.4362L45.1669 0.157719Z" fill="white"/>
</mask>
<g mask="url(#mask9_20727_1353)">
<path d="M16.1627 20.8753C16.7521 20.4038 16.7585 19.4321 16.1755 18.6994C15.5925 17.9698 14.6431 17.7563 14.0505 18.2278C13.4579 18.6994 13.4547 19.671 14.0378 20.4038C14.6208 21.1334 15.5702 21.3468 16.1627 20.8753Z" stroke="#13161E" stroke-width="0.382306" stroke-miterlimit="1.5" stroke-linecap="round" stroke-linejoin="round"/>
</g>
<mask id="mask10_20727_1353" style="mask-type:luminance" maskUnits="userSpaceOnUse" x="1" y="0" width="45" height="48">
<path d="M45.1669 0.157719L1.16992 0.157715L1.16992 47.4362L45.1669 47.4362L45.1669 0.157719Z" fill="white"/>
</mask>
<g mask="url(#mask10_20727_1353)">
<path d="M16.1531 20.8808C16.6055 20.5176 16.5896 19.7403 16.1117 19.1413C15.6338 18.5424 14.882 18.3512 14.4264 18.7112C13.974 19.0744 13.9899 19.8518 14.4678 20.4507C14.9457 21.0497 15.7007 21.2408 16.1531 20.8808Z" fill="#ACC0BF"/>
</g>
<mask id="mask11_20727_1353" style="mask-type:luminance" maskUnits="userSpaceOnUse" x="1" y="0" width="45" height="48">
<path d="M45.1669 0.157719L1.16992 0.157715L1.16992 47.4362L45.1669 47.4362L45.1669 0.157719Z" fill="white"/>
</mask>
<g mask="url(#mask11_20727_1353)">
<path fill-rule="evenodd" clip-rule="evenodd" d="M34.7684 34.2403C35.3068 37.7735 36.5015 40.0355 37.2821 41.3544C38.0626 42.6734 38.4704 42.7753 38.8463 42.6065C39.2254 42.4376 38.8591 40.7873 38.4927 38.6082C38.1263 36.4322 38.1199 34.868 38.0467 33.8453C37.9766 32.8194 34.2618 30.9111 34.7684 34.2403Z" fill="#E64F42"/>
</g>
<mask id="mask12_20727_1353" style="mask-type:luminance" maskUnits="userSpaceOnUse" x="1" y="0" width="45" height="48">
<path d="M45.1669 0.157719L1.16992 0.157715L1.16992 47.4362L45.1669 47.4362L45.1669 0.157719Z" fill="white"/>
</mask>
<g mask="url(#mask12_20727_1353)">
<path d="M34.7684 34.2403C35.3068 37.7735 36.5015 40.0355 37.2821 41.3544C38.0626 42.6734 38.4704 42.7753 38.8463 42.6065C39.2254 42.4376 38.8591 40.7873 38.4927 38.6082C38.1263 36.4322 38.1199 34.868 38.0467 33.8453C37.9766 32.8194 34.2618 30.9111 34.7684 34.2403Z" stroke="#13161E" stroke-width="0.382306" stroke-miterlimit="1.5" stroke-linecap="round" stroke-linejoin="round"/>
</g>
<mask id="mask13_20727_1353" style="mask-type:luminance" maskUnits="userSpaceOnUse" x="1" y="0" width="45" height="48">
<path d="M45.1669 0.157719L1.16992 0.157715L1.16992 47.4362L45.1669 47.4362L45.1669 0.157719Z" fill="white"/>
</mask>
<g mask="url(#mask13_20727_1353)">
<path fill-rule="evenodd" clip-rule="evenodd" d="M37.2023 36.7095C37.6897 39.1244 39.4037 43.6961 38.0115 41.9312C36.8168 40.4179 36.2465 38.8122 35.9821 38.0826C35.7177 37.3531 36.7149 34.2978 37.2023 36.7095Z" fill="#B84940"/>
</g>
<mask id="mask14_20727_1353" style="mask-type:luminance" maskUnits="userSpaceOnUse" x="1" y="0" width="45" height="48">
<path d="M45.1669 0.157719L1.16992 0.157715L1.16992 47.4362L45.1669 47.4362L45.1669 0.157719Z" fill="white"/>
</mask>
<g mask="url(#mask14_20727_1353)">
<path fill-rule="evenodd" clip-rule="evenodd" d="M30.6154 30.3433C31.4979 32.6467 37.9939 33.8095 39.4753 32.653C40.9599 31.4966 41.4951 30.9008 41.8998 30.1872C42.3044 29.4735 44.4007 26.1921 42.2534 25.9372C40.1093 25.6823 29.7329 28.0367 30.6154 30.3433Z" fill="white"/>
</g>
<mask id="mask15_20727_1353" style="mask-type:luminance" maskUnits="userSpaceOnUse" x="1" y="0" width="45" height="48">
<path d="M45.1669 0.157719L1.16992 0.157715L1.16992 47.4362L45.1669 47.4362L45.1669 0.157719Z" fill="white"/>
</mask>
<g mask="url(#mask15_20727_1353)">
<path d="M30.6154 30.3433C31.4979 32.6467 37.9939 33.8095 39.4753 32.653C40.9599 31.4966 41.4951 30.9008 41.8998 30.1872C42.3044 29.4735 44.4007 26.1921 42.2534 25.9372C40.1093 25.6823 29.7329 28.0367 30.6154 30.3433Z" stroke="#13161E" stroke-width="0.382306" stroke-miterlimit="1.5" stroke-linecap="round" stroke-linejoin="round"/>
</g>
<path d="M26.6331 3.55103L27.2607 15.6765" stroke="#13161E" stroke-width="0.382306" stroke-miterlimit="1.5" stroke-linecap="round" stroke-linejoin="round"/>
<mask id="mask16_20727_1353" style="mask-type:luminance" maskUnits="userSpaceOnUse" x="1" y="0" width="45" height="48">
<path d="M45.1586 0.158939L1.16162 0.158936L1.16162 47.4374L45.1586 47.4374L45.1586 0.158939Z" fill="white"/>
</mask>
<g mask="url(#mask16_20727_1353)">
<path d="M27.2622 15.5559C28.0459 15.5559 28.6831 14.9187 28.6831 14.135C28.6831 13.3513 28.0459 12.7141 27.2622 12.7141C26.4785 12.7141 25.8413 13.3513 25.8413 14.135C25.8413 14.9219 26.4753 15.5559 27.2622 15.5559Z" fill="#D9B879"/>
</g>
<mask id="mask17_20727_1353" style="mask-type:luminance" maskUnits="userSpaceOnUse" x="-3" y="-6" width="60" height="61">
<path d="M38.455 -5.62792L-2.19385 11.2097L15.8996 54.8903L56.5484 38.0526L38.455 -5.62792Z" fill="white"/>
</mask>
<g mask="url(#mask17_20727_1353)">
<path d="M27.8107 15.4504C28.5358 15.1501 28.88 14.3189 28.5797 13.5939C28.2794 12.8688 27.4482 12.5246 26.7232 12.8249C25.9981 13.1252 25.6539 13.9564 25.9542 14.6814C26.2545 15.4064 27.0857 15.7507 27.8107 15.4504Z" stroke="#13161E" stroke-width="0.382306" stroke-miterlimit="1.5" stroke-linecap="round" stroke-linejoin="round"/>
</g>
<mask id="mask18_20727_1353" style="mask-type:luminance" maskUnits="userSpaceOnUse" x="1" y="0" width="45" height="48">
<path d="M45.1669 0.157719L1.16992 0.157715L1.16992 47.4362L45.1669 47.4362L45.1669 0.157719Z" fill="white"/>
</mask>
<g mask="url(#mask18_20727_1353)">
<path d="M27.5014 14.9531C28.0239 14.9531 28.4476 14.523 28.4476 13.9941C28.4476 13.4652 28.0239 13.0352 27.5014 13.0352C26.9789 13.0352 26.5552 13.4652 26.5552 13.9941C26.5584 14.523 26.9821 14.9531 27.5014 14.9531Z" fill="#FFDFA0"/>
</g>
<mask id="mask19_20727_1353" style="mask-type:luminance" maskUnits="userSpaceOnUse" x="1" y="0" width="45" height="48">
<path d="M45.1669 0.157719L1.16992 0.157715L1.16992 47.4362L45.1669 47.4362L45.1669 0.157719Z" fill="white"/>
</mask>
<g mask="url(#mask19_20727_1353)">
<path fill-rule="evenodd" clip-rule="evenodd" d="M22.6758 38.3445C19.3019 38.2266 16.8392 36.5221 12.7103 36.6305C12.0158 36.6496 9.62321 37.3409 9.13895 39.9119C8.56231 42.9576 8.84904 45.9301 7.92513 46.6915C7.57469 46.9814 6.53609 45.7102 6.03272 44.0918C5.59625 42.6932 5.63448 41.6546 5.35413 41.9031C3.38207 43.649 1.84329 44.5952 1.42912 43.8592C1.03089 43.1488 2.49958 40.0202 4.03199 38.0896C5.60581 36.108 7.21468 35.5791 7.65752 34.1837C9.68692 27.7673 13.2615 22.1825 18.8846 18.9966C20.8853 17.8624 23.8354 16.5435 26.5657 15.6291C30.6022 14.2783 38.86 12.8033 43.0112 18.7163C46.6463 23.8965 44.5596 27.2034 42.1765 30.0994C42.1765 30.0994 39.9815 29.4336 36.5821 30.0484C34.1832 30.4817 31.4401 32.3773 31.4401 32.3773C31.4401 32.3773 35.4575 31.1316 37.8756 31.0138C40.5135 30.8863 41.8356 30.9915 42.6512 31.2877C43.435 31.5745 43.6484 32.0332 43.3043 32.6895C42.2434 34.7317 39.5036 35.6747 37.0536 36.5954C33.3166 38.0036 32.0582 38.6726 22.6758 38.3445Z" fill="#E64F42"/>
</g>
<mask id="mask20_20727_1353" style="mask-type:luminance" maskUnits="userSpaceOnUse" x="1" y="0" width="45" height="48">
<path d="M45.1669 0.157719L1.16992 0.157715L1.16992 47.4362L45.1669 47.4362L45.1669 0.157719Z" fill="white"/>
</mask>
<g mask="url(#mask20_20727_1353)">
<path d="M22.6758 38.3445C19.3019 38.2266 16.8392 36.5221 12.7103 36.6305C12.0158 36.6496 9.62321 37.3409 9.13895 39.9119C8.56231 42.9576 8.84904 45.9301 7.92513 46.6915C7.57468 46.9814 6.53609 45.7102 6.03272 44.0918C5.59625 42.6932 5.63448 41.6546 5.35413 41.9031C3.38207 43.649 1.84329 44.5952 1.42912 43.8592C1.03089 43.1488 2.49958 40.0202 4.03199 38.0896C5.60581 36.108 7.21468 35.5791 7.65752 34.1837C9.68692 27.7673 13.2615 22.1825 18.8846 18.9966C20.8853 17.8624 23.8354 16.5435 26.5657 15.6291C30.6022 14.2783 38.86 12.8033 43.0112 18.7163C46.6463 23.8965 44.5596 27.2034 42.1765 30.0994C42.1765 30.0994 39.9815 29.4336 36.5821 30.0484C34.1832 30.4817 31.4401 32.3773 31.4401 32.3773C31.4401 32.3773 35.4575 31.1316 37.8756 31.0138C40.5135 30.8863 41.8356 30.9915 42.6512 31.2877C43.435 31.5745 43.6484 32.0332 43.3043 32.6895C42.2434 34.7317 39.5036 35.6747 37.0536 36.5954C33.3166 38.0036 32.0582 38.6726 22.6758 38.3445Z" stroke="#13161E" stroke-width="0.382306" stroke-miterlimit="1.5" stroke-linecap="round" stroke-linejoin="round"/>
</g>
<mask id="mask21_20727_1353" style="mask-type:luminance" maskUnits="userSpaceOnUse" x="1" y="0" width="45" height="48">
<path d="M45.1669 0.157719L1.16992 0.157715L1.16992 47.4362L45.1669 47.4362L45.1669 0.157719Z" fill="white"/>
</mask>
<g mask="url(#mask21_20727_1353)">
<path fill-rule="evenodd" clip-rule="evenodd" d="M43.1761 26.3139C41.8189 25.0332 40.8217 25.6927 36.8871 26.9479C32.3568 28.3911 30.6619 29.2577 25.8353 28.4007C19.0048 27.1868 17.8547 29.4775 15.94 30.7996C13.1109 32.7558 6.47791 35.0655 3.77947 41.0263C3.07221 42.5874 3.61062 42.1382 4.47081 41.7431C4.82444 41.5806 5.29595 41.1569 5.7579 41.3067C6.30588 41.4819 6.1434 42.5778 6.38552 43.5559C6.70411 44.8398 7.33491 45.8434 7.5643 45.8115C7.80642 45.7796 8.01669 41.7304 8.40537 39.9081C9.14131 36.4323 12.2061 35.7505 13.8214 36.0404C17.8165 36.7572 20.0275 37.6047 23.07 37.7544C27.6162 37.9774 29.3971 38.1367 32.6913 37.0949C35.9823 36.0531 39.3052 35.5084 40.0348 35.1324C40.7644 34.7565 41.2677 34.7023 42.061 33.9059C42.8543 33.1062 43.3385 31.9147 42.4624 31.6949C40.2196 31.1246 37.6772 31.0226 34.3575 31.8892C33.4336 32.1313 32.2772 32.4913 31.6081 32.743C31.0315 32.9597 30.6173 32.6634 31.2927 32.1313C36.0365 28.3815 41.8922 29.7164 41.8922 29.7164C41.8922 29.7164 44.1478 27.2283 43.1761 26.3139Z" fill="#B84940"/>
</g>
<mask id="mask22_20727_1353" style="mask-type:luminance" maskUnits="userSpaceOnUse" x="1" y="0" width="45" height="48">
<path d="M45.1669 0.157719L1.16992 0.157715L1.16992 47.4362L45.1669 47.4362L45.1669 0.157719Z" fill="white"/>
</mask>
<g mask="url(#mask22_20727_1353)">
<path fill-rule="evenodd" clip-rule="evenodd" d="M31.6048 30.9301C31.6048 30.9301 29.929 30.825 29.0433 30.4235C27.256 29.6079 26.0327 28.203 25.4305 26.7789C24.7328 25.1318 24.3569 23.5994 23.1112 23.5293C21.8687 23.4592 19.6099 25.2975 18.2273 26.7311C16.6343 28.3814 12.5914 31.2455 12.327 31.3347C12.1741 31.3857 12.5373 32.0005 15.2262 30.4904C17.1026 29.4391 18.2878 28.0341 19.4411 27.1612C20.9002 26.0557 22.2574 24.501 23.5572 25.9219C24.5863 27.0465 24.3824 28.0341 25.9721 29.5156C27.5619 30.997 28.6228 31.3793 30.8147 31.5035L31.6048 30.9301Z" fill="#FFDFA0"/>
</g>
<mask id="mask23_20727_1353" style="mask-type:luminance" maskUnits="userSpaceOnUse" x="1" y="0" width="45" height="48">
<path d="M45.1669 0.157719L1.16992 0.157715L1.16992 47.4362L45.1669 47.4362L45.1669 0.157719Z" fill="white"/>
</mask>
<g mask="url(#mask23_20727_1353)">
<path fill-rule="evenodd" clip-rule="evenodd" d="M25.1352 16.8677C22.7872 18.3841 21.7167 23.5102 24.5745 22.0033C26.3044 21.0921 28.2573 19.6808 32.1091 21.3502C35.9608 23.0196 38.3406 23.2585 40.4847 22.4461C42.6288 21.6369 43.2246 18.7951 41.278 17.1512C39.3283 15.5041 36.633 14.6216 33.5841 14.6949C30.4078 14.7714 27.4895 15.3448 25.1352 16.8677Z" fill="#FF6659"/>
</g>
<mask id="mask24_20727_1353" style="mask-type:luminance" maskUnits="userSpaceOnUse" x="1" y="0" width="45" height="48">
<path d="M45.1669 0.157719L1.16992 0.157715L1.16992 47.4362L45.1669 47.4362L45.1669 0.157719Z" fill="white"/>
</mask>
<g mask="url(#mask24_20727_1353)">
<path fill-rule="evenodd" clip-rule="evenodd" d="M27.8001 23.5228C28.5806 23.5961 29.221 23.5228 29.221 23.5228L30.2883 23.5228C30.2883 23.5228 30.7566 26.183 28.7463 26.5781C27.5357 26.817 26.239 26.0556 25.9396 24.6825C25.7994 24.0358 25.9905 23.2966 25.9905 23.2966C25.9905 23.2966 26.6054 23.4113 27.8001 23.5228Z" fill="#13161E"/>
</g>
<mask id="mask25_20727_1353" style="mask-type:luminance" maskUnits="userSpaceOnUse" x="1" y="0" width="45" height="48">
<path d="M45.1669 0.157719L1.16992 0.157715L1.16992 47.4362L45.1669 47.4362L45.1669 0.157719Z" fill="white"/>
</mask>
<g mask="url(#mask25_20727_1353)">
<path d="M27.8001 23.5228C28.5806 23.5961 29.221 23.5228 29.221 23.5228L30.2883 23.5228C30.2883 23.5228 30.7566 26.183 28.7463 26.5781C27.5357 26.817 26.239 26.0556 25.9396 24.6825C25.7994 24.0358 25.9905 23.2966 25.9905 23.2966C25.9905 23.2966 26.6054 23.4113 27.8001 23.5228Z" stroke="#13161E" stroke-width="0.382306" stroke-miterlimit="1.5" stroke-linecap="round" stroke-linejoin="round"/>
</g>
<mask id="mask26_20727_1353" style="mask-type:luminance" maskUnits="userSpaceOnUse" x="1" y="0" width="45" height="48">
<path d="M45.1669 0.157719L1.16992 0.157715L1.16992 47.4362L45.1669 47.4362L45.1669 0.157719Z" fill="white"/>
</mask>
<g mask="url(#mask26_20727_1353)">
<path d="M29.4295 25.149C29.8404 25.0407 30.0794 24.5979 29.9615 24.155C29.8436 23.7122 29.4199 23.4414 29.0089 23.5497C28.5979 23.6581 28.359 24.1009 28.4769 24.5437C28.5916 24.9834 29.0185 25.2542 29.4295 25.149Z" fill="white"/>
</g>
<mask id="mask27_20727_1353" style="mask-type:luminance" maskUnits="userSpaceOnUse" x="1" y="0" width="45" height="48">
<path d="M45.1669 0.157719L1.16992 0.157715L1.16992 47.4362L45.1669 47.4362L45.1669 0.157719Z" fill="white"/>
</mask>
<g mask="url(#mask27_20727_1353)">
<path d="M24.7639 22.7044C26.5703 23.9341 31.0337 23.418 31.0337 23.418L28.7049 20.7546" stroke="#13161E" stroke-width="0.382306" stroke-miterlimit="1.5" stroke-linecap="round" stroke-linejoin="round"/>
</g>
<mask id="mask28_20727_1353" style="mask-type:luminance" maskUnits="userSpaceOnUse" x="1" y="0" width="45" height="48">
<path d="M45.1669 0.157719L1.16992 0.157715L1.16992 47.4362L45.1669 47.4362L45.1669 0.157719Z" fill="white"/>
</mask>
<g mask="url(#mask28_20727_1353)">
<path fill-rule="evenodd" clip-rule="evenodd" d="M38.2941 35.5709C38.5649 36.1635 38.8676 40.0056 37.5932 42.4014C36.5037 44.4499 34.4647 46.8489 31.0335 47.1994C29.3259 47.3746 27.0894 47.0719 21.9856 44.9406C17.9618 43.2584 13.3742 47.2694 13.4793 46.9923C14.5434 44.2014 15.5756 42.1689 17.7548 40.4198C19.4146 39.0881 21.0776 38.8587 22.9095 39.0913C26.2483 39.515 30.0969 38.744 29.8802 37.4888C29.8133 37.0842 37.4053 33.6243 38.2941 35.5709Z" fill="#FD8917"/>
</g>
<mask id="mask29_20727_1353" style="mask-type:luminance" maskUnits="userSpaceOnUse" x="1" y="0" width="45" height="48">
<path d="M45.1669 0.157719L1.16992 0.157715L1.16992 47.4362L45.1669 47.4362L45.1669 0.157719Z" fill="white"/>
</mask>
<g mask="url(#mask29_20727_1353)">
<path d="M38.2941 35.5709C38.5649 36.1635 38.8676 40.0056 37.5932 42.4014C36.5037 44.4499 34.4647 46.8489 31.0335 47.1994C29.3259 47.3746 27.0894 47.0719 21.9856 44.9406C17.9618 43.2584 13.3742 47.2694 13.4793 46.9923C14.5434 44.2014 15.5756 42.1689 17.7548 40.4198C19.4146 39.0881 21.0776 38.8587 22.9095 39.0913C26.2483 39.515 30.0969 38.744 29.8802 37.4888C29.8133 37.0842 37.4053 33.6243 38.2941 35.5709Z" stroke="#13161E" stroke-width="0.382306" stroke-miterlimit="1.5" stroke-linecap="round" stroke-linejoin="round"/>
</g>
<mask id="mask30_20727_1353" style="mask-type:luminance" maskUnits="userSpaceOnUse" x="1" y="0" width="45" height="48">
<path d="M45.1669 0.157719L1.16992 0.157715L1.16992 47.4362L45.1669 47.4362L45.1669 0.157719Z" fill="white"/>
</mask>
<g mask="url(#mask30_20727_1353)">
<path fill-rule="evenodd" clip-rule="evenodd" d="M36.5664 35.7129C36.7862 37.0287 36.8181 39.7717 35.7699 41.4252C34.6167 43.238 32.3865 46.7615 26.464 44.6557C21.3124 42.827 22.3 42.8843 20.9014 42.3268C19.6844 41.8425 22.4976 42.7664 29.4587 40.4312C30.8 39.982 32.0488 37.3759 31.7048 36.675C31.3575 35.9773 36.3466 34.3971 36.5664 35.7129Z" fill="#FEE767"/>
</g>
<mask id="mask31_20727_1353" style="mask-type:luminance" maskUnits="userSpaceOnUse" x="1" y="0" width="45" height="48">
<path d="M45.1669 0.157719L1.16992 0.157715L1.16992 47.4362L45.1669 47.4362L45.1669 0.157719Z" fill="white"/>
</mask>
<g mask="url(#mask31_20727_1353)">
<path fill-rule="evenodd" clip-rule="evenodd" d="M26.7898 39.0382C29.3162 36.6425 32.8015 35.1323 36.0193 34.5971C39.2338 34.0619 41.0147 34.0491 41.4576 34.3327C41.8972 34.6162 40.3903 35.9033 39.8582 35.7345C39.3262 35.5624 37.2171 35.5274 35.6338 35.881C34.0504 36.2315 32.0242 36.7986 30.119 37.5664C28.2138 38.331 25.9041 39.8761 26.7898 39.0382Z" fill="#E5DFDC"/>
</g>
<mask id="mask32_20727_1353" style="mask-type:luminance" maskUnits="userSpaceOnUse" x="1" y="0" width="45" height="48">
<path d="M45.1669 0.157719L1.16992 0.157715L1.16992 47.4362L45.1669 47.4362L45.1669 0.157719Z" fill="white"/>
</mask>
<g mask="url(#mask32_20727_1353)">
<path d="M26.7898 39.0382C29.3162 36.6425 32.8015 35.1323 36.0193 34.5971C39.2338 34.0619 41.0147 34.0491 41.4576 34.3327C41.8972 34.6162 40.3903 35.9033 39.8582 35.7345C39.3262 35.5624 37.2171 35.5274 35.6338 35.881C34.0504 36.2315 32.0242 36.7986 30.119 37.5664C28.2138 38.331 25.9041 39.8761 26.7898 39.0382Z" stroke="#13161E" stroke-width="0.382306" stroke-miterlimit="1.5" stroke-linecap="round" stroke-linejoin="round"/>
</g>
<mask id="mask33_20727_1353" style="mask-type:luminance" maskUnits="userSpaceOnUse" x="1" y="0" width="45" height="48">
<path d="M45.1669 0.157719L1.16992 0.157715L1.16992 47.4362L45.1669 47.4362L45.1669 0.157719Z" fill="white"/>
</mask>
<g mask="url(#mask33_20727_1353)">
<path fill-rule="evenodd" clip-rule="evenodd" d="M29.1394 37.636C29.1394 37.636 30.2672 37.0498 31.5384 36.556C32.8127 36.0622 34.2496 35.5938 35.6959 35.3135C37.1423 35.0331 39.5987 35.0331 40.4748 35.1128C41.0004 35.1606 41.1852 34.4756 41.1852 34.4756C40.8826 34.2367 38.4517 34.4183 36.4287 34.74C34.4248 35.0554 32.7331 35.6767 32.3317 35.8328C31.5511 36.1354 30.9649 36.4126 30.1366 36.8586C29.5217 37.19 29.1394 37.636 29.1394 37.636Z" fill="#BAB0AC"/>
</g>
<mask id="mask34_20727_1353" style="mask-type:luminance" maskUnits="userSpaceOnUse" x="1" y="0" width="45" height="48">
<path d="M45.1669 0.157719L1.16992 0.157715L1.16992 47.4362L45.1669 47.4362L45.1669 0.157719Z" fill="white"/>
</mask>
<g mask="url(#mask34_20727_1353)">
<path fill-rule="evenodd" clip-rule="evenodd" d="M25.2956 38.4331C23.5243 37.2161 21.4375 35.5627 20.0071 32.9757C18.5766 30.3856 17.9458 26.8238 17.9076 25.4666C17.8694 24.1094 18.035 23.3958 18.035 23.3958L18.8602 23.3862C18.8602 23.3862 18.4715 24.5809 19.029 27.8528C19.5865 31.1247 20.5742 32.7687 21.8708 34.3998C23.0273 35.8558 23.6868 36.6554 25.713 38.07C27.7424 39.4813 26.9077 39.5386 25.2956 38.4331Z" fill="#D9FFFD"/>
</g>
<mask id="mask35_20727_1353" style="mask-type:luminance" maskUnits="userSpaceOnUse" x="1" y="0" width="45" height="48">
<path d="M45.1669 0.157719L1.16992 0.157715L1.16992 47.4362L45.1669 47.4362L45.1669 0.157719Z" fill="white"/>
</mask>
<g mask="url(#mask35_20727_1353)">
<path d="M25.2956 38.4331C23.5243 37.2161 21.4375 35.5627 20.0071 32.9757C18.5766 30.3856 17.9458 26.8238 17.9076 25.4666C17.8694 24.1094 18.035 23.3958 18.035 23.3958L18.8602 23.3862C18.8602 23.3862 18.4715 24.5809 19.029 27.8528C19.5865 31.1247 20.5742 32.7687 21.8708 34.3998C23.0273 35.8558 23.6868 36.6554 25.713 38.07C27.7424 39.4813 26.9077 39.5386 25.2956 38.4331Z" stroke="#13161E" stroke-width="0.382306" stroke-miterlimit="1.5" stroke-linecap="round" stroke-linejoin="round"/>
</g>
<mask id="mask36_20727_1353" style="mask-type:luminance" maskUnits="userSpaceOnUse" x="1" y="0" width="45" height="48">
<path d="M45.1669 0.157719L1.16992 0.157715L1.16992 47.4362L45.1669 47.4362L45.1669 0.157719Z" fill="white"/>
</mask>
<g mask="url(#mask36_20727_1353)">
<path fill-rule="evenodd" clip-rule="evenodd" d="M11.3134 29.5315C11.3931 30.1495 12.0462 33.1188 12.8459 34.409C14.2859 36.7347 14.7892 36.6487 15.2066 36.9928C15.6239 37.3401 14.1616 35.4604 13.5691 34.2529C12.9765 33.0455 12.4604 31.2614 12.3011 29.6239C12.1832 28.41 11.2306 28.9134 11.3134 29.5315Z" fill="#D9FFFD"/>
</g>
<mask id="mask37_20727_1353" style="mask-type:luminance" maskUnits="userSpaceOnUse" x="1" y="0" width="45" height="48">
<path d="M45.1669 0.157719L1.16992 0.157715L1.16992 47.4362L45.1669 47.4362L45.1669 0.157719Z" fill="white"/>
</mask>
<g mask="url(#mask37_20727_1353)">
<path d="M11.3134 29.5315C11.3931 30.1495 12.0462 33.1188 12.8459 34.409C14.2859 36.7347 14.7892 36.6487 15.2066 36.9928C15.6239 37.3401 14.1616 35.4604 13.569 34.2529C12.9765 33.0455 12.4604 31.2614 12.3011 29.6239C12.1832 28.41 11.2306 28.9134 11.3134 29.5315Z" stroke="#13161E" stroke-width="0.382306" stroke-miterlimit="1.5" stroke-linecap="round" stroke-linejoin="round"/>
</g>
<mask id="mask38_20727_1353" style="mask-type:luminance" maskUnits="userSpaceOnUse" x="1" y="0" width="45" height="48">
<path d="M45.1669 0.157719L1.16992 0.157715L1.16992 47.4362L45.1669 47.4362L45.1669 0.157719Z" fill="white"/>
</mask>
<g mask="url(#mask38_20727_1353)">
<path fill-rule="evenodd" clip-rule="evenodd" d="M10.2304 26.6039C10.0743 27.5979 10.0743 31.2107 12.6485 29.3501C15.9395 26.9703 18.4946 24.7274 18.9151 23.8067C19.3356 22.886 19.2592 22.7522 19.0107 21.4077C18.7335 19.9008 18.5615 19.3942 18.0613 19.2031C17.4847 18.9801 16.7009 19.3879 15.3915 20.2704C13.8942 21.2803 11.715 23.743 11.3391 24.224C10.5331 25.2467 10.3292 25.9699 10.2304 26.6039Z" fill="#D9FFFD"/>
</g>
<mask id="mask39_20727_1353" style="mask-type:luminance" maskUnits="userSpaceOnUse" x="1" y="0" width="45" height="48">
<path d="M45.1669 0.157719L1.16992 0.157715L1.16992 47.4362L45.1669 47.4362L45.1669 0.157719Z" fill="white"/>
</mask>
<g mask="url(#mask39_20727_1353)">
<path d="M10.2304 26.6039C10.0743 27.5979 10.0743 31.2107 12.6485 29.3501C15.9395 26.9703 18.4946 24.7274 18.9151 23.8067C19.3356 22.886 19.2592 22.7522 19.0107 21.4077C18.7335 19.9008 18.5615 19.3942 18.0613 19.2031C17.4847 18.9801 16.7009 19.3879 15.3915 20.2704C13.8942 21.2803 11.715 23.743 11.3391 24.224C10.5331 25.2467 10.3292 25.9699 10.2304 26.6039Z" stroke="#13161E" stroke-width="0.381509" stroke-miterlimit="1.5" stroke-linecap="round" stroke-linejoin="round"/>
</g>
<mask id="mask40_20727_1353" style="mask-type:luminance" maskUnits="userSpaceOnUse" x="1" y="0" width="45" height="48">
<path d="M45.1669 0.157719L1.16992 0.157715L1.16992 47.4362L45.1669 47.4362L45.1669 0.157719Z" fill="white"/>
</mask>
<g mask="url(#mask40_20727_1353)">
<path fill-rule="evenodd" clip-rule="evenodd" d="M10.8963 28.6215C11.4825 28.4208 11.7215 28.4463 12.8174 27.653C13.9134 26.8597 15.9969 25.4707 16.7297 24.7157C17.4624 23.9638 17.867 23.2533 17.8861 22.6416C17.9053 22.03 17.9339 21.2016 17.8065 20.8257C17.6791 20.4498 17.4051 20.2427 17.4051 20.2427C17.4051 20.2427 16.1753 20.8225 14.2925 22.3581C11.3041 24.7985 11.0238 25.0757 10.6892 25.9677C10.3675 26.8279 10.3101 28.8223 10.8963 28.6215Z" fill="#ACC0BF"/>
</g>
<mask id="mask41_20727_1353" style="mask-type:luminance" maskUnits="userSpaceOnUse" x="1" y="0" width="45" height="48">
<path d="M45.1669 0.157719L1.16992 0.157715L1.16992 47.4362L45.1669 47.4362L45.1669 0.157719Z" fill="white"/>
</mask>
<g mask="url(#mask41_20727_1353)">
<path d="M17.2742 19.3333C17.2742 19.3333 17.4908 19.8557 17.8126 20.8242C18.1216 21.7481 18.2809 23.2551 16.9524 24.4561C15.232 26.0109 12.7789 27.8172 12.113 28.1167" stroke="#13161E" stroke-width="0.381509" stroke-miterlimit="1.5" stroke-linecap="round" stroke-linejoin="round"/>
</g>
<mask id="mask42_20727_1353" style="mask-type:luminance" maskUnits="userSpaceOnUse" x="1" y="0" width="45" height="48">
<path d="M45.1669 0.157719L1.16992 0.157715L1.16992 47.4362L45.1669 47.4362L45.1669 0.157719Z" fill="white"/>
</mask>
<g mask="url(#mask42_20727_1353)">
<path fill-rule="evenodd" clip-rule="evenodd" d="M22.7848 34.3287C22.7529 34.8385 23.4124 37.4414 24.6135 39.4644C25.8146 41.4874 28.4525 43.8577 29.6727 44.1986C30.8929 44.5395 32.2277 44.2273 31.3453 41.9494C30.4596 39.6715 29.918 37.6484 29.9084 37.3904C29.8989 37.1323 28.8794 36.4697 26.4804 35.3865C24.0846 34.3064 22.8198 33.819 22.7848 34.3287Z" fill="#E64F42"/>
</g>
<mask id="mask43_20727_1353" style="mask-type:luminance" maskUnits="userSpaceOnUse" x="1" y="0" width="45" height="48">
<path d="M45.1669 0.157719L1.16992 0.157715L1.16992 47.4362L45.1669 47.4362L45.1669 0.157719Z" fill="white"/>
</mask>
<g mask="url(#mask43_20727_1353)">
<path d="M22.7848 34.3287C22.7529 34.8385 23.4124 37.4414 24.6135 39.4644C25.8146 41.4874 28.4525 43.8577 29.6727 44.1986C30.8929 44.5395 32.2277 44.2273 31.3453 41.9494C30.4596 39.6715 29.918 37.6484 29.9084 37.3904C29.8989 37.1323 28.8794 36.4697 26.4804 35.3865C24.0846 34.3064 22.8198 33.819 22.7848 34.3287Z" stroke="#13161E" stroke-width="0.382306" stroke-miterlimit="1.5" stroke-linecap="round" stroke-linejoin="round"/>
</g>
<mask id="mask44_20727_1353" style="mask-type:luminance" maskUnits="userSpaceOnUse" x="1" y="0" width="45" height="48">
<path d="M45.1669 0.157719L1.16992 0.157715L1.16992 47.4362L45.1669 47.4362L45.1669 0.157719Z" fill="white"/>
</mask>
<g mask="url(#mask44_20727_1353)">
<path fill-rule="evenodd" clip-rule="evenodd" d="M27.6828 42.2243C29.0974 43.3744 31.1714 44.8877 31.1777 43.658C31.1809 43.0208 30.8241 42.4409 30.0468 41.6795C29.2662 40.9213 28.0906 39.1404 27.5299 38.2228C26.9724 37.3053 26.6124 36.7255 26.5487 35.9895C26.52 35.6646 23.4615 34.4985 23.4615 34.4985C23.4615 34.4985 22.9518 34.2214 23.0155 34.677C23.0729 35.0816 23.5444 37.0218 24.1656 38.0253C24.9398 39.2837 26.2683 41.0742 27.6828 42.2243Z" fill="#B84940"/>
</g>
<mask id="mask45_20727_1353" style="mask-type:luminance" maskUnits="userSpaceOnUse" x="1" y="0" width="45" height="48">
<path d="M45.1669 0.157719L1.16992 0.157715L1.16992 47.4362L45.1669 47.4362L45.1669 0.157719Z" fill="white"/>
</mask>
<g mask="url(#mask45_20727_1353)">
<path d="M30.3976 44.3149C30.9647 44.2162 31.7325 43.6363 30.5633 42.2823C29.3973 40.9283 27.9127 39.3895 26.9282 37.0288" stroke="#13161E" stroke-width="0.382306" stroke-miterlimit="1.5" stroke-linecap="round" stroke-linejoin="round"/>
</g>
<mask id="mask46_20727_1353" style="mask-type:luminance" maskUnits="userSpaceOnUse" x="1" y="0" width="45" height="48">
<path d="M45.1669 0.157719L1.16992 0.157715L1.16992 47.4362L45.1669 47.4362L45.1669 0.157719Z" fill="white"/>
</mask>
<g mask="url(#mask46_20727_1353)">
<path d="M30.3976 44.3149C30.9647 44.2162 31.7325 43.6363 30.5633 42.2823C29.3973 40.9283 27.9127 39.3895 26.9282 37.0288" stroke="#13161E" stroke-width="0.382306" stroke-miterlimit="1.5" stroke-linecap="round" stroke-linejoin="round"/>
</g>
<mask id="mask47_20727_1353" style="mask-type:luminance" maskUnits="userSpaceOnUse" x="1" y="0" width="45" height="48">
<path d="M45.1669 0.157719L1.16992 0.157715L1.16992 47.4362L45.1669 47.4362L45.1669 0.157719Z" fill="white"/>
</mask>
<g mask="url(#mask47_20727_1353)">
<path fill-rule="evenodd" clip-rule="evenodd" d="M17.1371 29.9936C16.5413 30.9175 16.4075 32.5964 16.0634 34.68C15.7958 36.2952 14.3399 38.1367 14.5024 38.6974C14.6648 39.2581 16.2419 39.5353 18.7683 36.7699C20.2688 35.126 22.0656 30.8474 21.798 30.2994C21.5304 29.7514 20.5492 29.213 19.2206 29.0983C17.8921 28.9804 17.5258 29.3914 17.1371 29.9936Z" fill="#FF6659"/>
</g>
<mask id="mask48_20727_1353" style="mask-type:luminance" maskUnits="userSpaceOnUse" x="1" y="0" width="45" height="48">
<path d="M45.1669 0.157719L1.16992 0.157715L1.16992 47.4362L45.1669 47.4362L45.1669 0.157719Z" fill="white"/>
</mask>
<g mask="url(#mask48_20727_1353)">
<path d="M17.1371 29.9936C16.5413 30.9175 16.4075 32.5964 16.0634 34.68C15.7958 36.2952 14.3399 38.1367 14.5024 38.6974C14.6648 39.2581 16.2419 39.5353 18.7683 36.7699C20.2688 35.126 22.0656 30.8474 21.798 30.2994C21.5304 29.7514 20.5492 29.213 19.2206 29.0983C17.8921 28.9804 17.5258 29.3914 17.1371 29.9936Z" stroke="#13161E" stroke-width="0.382306" stroke-miterlimit="1.5" stroke-linecap="round" stroke-linejoin="round"/>
</g>
<mask id="mask49_20727_1353" style="mask-type:luminance" maskUnits="userSpaceOnUse" x="1" y="0" width="45" height="48">
<path d="M45.1669 0.157719L1.16992 0.157715L1.16992 47.4362L45.1669 47.4362L45.1669 0.157719Z" fill="white"/>
</mask>
<g mask="url(#mask49_20727_1353)">
<path fill-rule="evenodd" clip-rule="evenodd" d="M20.0527 29.5481C20.5019 29.8508 19.9412 31.9152 18.909 33.317C16.5036 36.5857 15.3249 36.6112 14.8406 38.2073C14.4902 39.3638 17.4052 37.3949 18.3005 36.3723C19.1766 35.3751 20.2566 33.3935 20.983 32.323C21.7126 31.2557 21.566 30.9244 21.6106 30.4561C21.6584 29.9878 19.6099 29.2486 20.0527 29.5481Z" fill="#E64F42"/>
</g>
<mask id="mask50_20727_1353" style="mask-type:luminance" maskUnits="userSpaceOnUse" x="1" y="0" width="45" height="48">
<path d="M45.1669 0.157719L1.16992 0.157715L1.16992 47.4362L45.1669 47.4362L45.1669 0.157719Z" fill="white"/>
</mask>
<g mask="url(#mask50_20727_1353)">
<path d="M15.7842 38.2731C17.2656 38.1329 20.2922 33.9084 21.8278 30.3657" stroke="#13161E" stroke-width="0.382306" stroke-miterlimit="1.5" stroke-linecap="round" stroke-linejoin="round"/>
</g>
</svg>
